<svg class="cursor-pointer md:w-56 xl:w-64" width="261" height="51" viewBox="0 0 261 51" fill="none" xmlns="http://www.w3.org/2000/svg"><path d="M66.3157 9.19773C65.3535 9.2006 64.412 8.91803 63.6104 8.38574V22.646H68.6057V8.61774C67.9017 8.9963 67.1151 9.1955 66.3157 9.19773Z" fill="#262262"></path><path d="M87.3293 1.34302V8.89035L87.3892 14.5817L77.7427 1.34302H73.2524V22.6454H78.2104V15.2178L78.1505 9.47034L87.7971 22.6454H92.2686V1.34302H87.3293Z" fill="#262262"></path><path d="M110.973 1.34302V8.89035L111.033 14.5817L101.405 1.34302H96.9146V22.6454H101.873V15.2178L101.813 9.47034L111.459 22.6454H115.931V1.34302H110.973Z" fill="#262262"></path><path d="M140.862 6.12525C139.937 4.45537 138.542 3.09422 136.85 2.21126C134.968 1.30001 132.903 0.82666 130.811 0.82666C128.719 0.82666 126.655 1.30001 124.772 2.21126C123.078 3.09362 121.682 4.45483 120.757 6.12525C119.781 7.92535 119.292 9.94913 119.338 11.9962C119.293 14.0432 119.782 16.0667 120.757 17.8672C121.68 19.5387 123.077 20.9003 124.772 21.7812C126.655 22.6924 128.719 23.1658 130.811 23.1658C132.903 23.1658 134.968 22.6924 136.85 21.7812C138.542 20.8992 139.937 19.5394 140.862 17.8709C141.837 16.0705 142.325 14.047 142.28 12C142.327 9.95161 141.838 7.92646 140.862 6.12525ZM136.484 15.5248C135.967 16.5159 135.174 17.3361 134.201 17.8859C133.157 18.434 131.994 18.7203 130.815 18.7203C129.635 18.7203 128.473 18.434 127.428 17.8859C126.464 17.3309 125.679 16.5116 125.165 15.5248C124.61 14.4326 124.334 13.2207 124.36 11.9962C124.335 10.7707 124.611 9.55769 125.165 8.46391C125.679 7.47923 126.464 6.66247 127.428 6.11028C128.472 5.55974 129.635 5.27201 130.815 5.27201C131.995 5.27201 133.157 5.55974 134.201 6.11028C135.174 6.65726 135.967 7.4749 136.484 8.46391C137.041 9.55646 137.319 10.7701 137.292 11.9962C137.319 13.2212 137.041 14.4336 136.484 15.5248Z" fill="#262262"></path><path d="M159.96 1.34302L157.128 8.58726L154.052 16.8643L151.059 8.58726L148.177 1.34302H142.677L151.44 22.6454H156.701L165.468 1.34302H159.96Z" fill="#262262"></path><path d="M177.738 1.34302H172.406L162.849 22.6454H168.174L169.757 18.8138H180.256L181.854 22.6454H187.242L177.738 1.34302ZM171.553 14.5181L175.048 6.12512L178.486 14.5181H171.553Z" fill="#262262"></path><path d="M185.551 1.34302V5.69106H192.032V22.6454H197.02V5.69106H203.53V1.34302H185.551Z" fill="#262262"></path><path d="M206.296 1.34302V22.6454H211.291V1.34302H206.296Z" fill="#262262"></path><path d="M236.254 6.12525C235.326 4.45551 233.929 3.09466 232.235 2.21126C230.352 1.30001 228.288 0.82666 226.196 0.82666C224.104 0.82666 222.039 1.30001 220.157 2.21126C218.466 3.09792 217.071 4.45805 216.142 6.12525C215.169 7.92633 214.681 9.94965 214.727 11.9962C214.682 14.0427 215.17 16.0658 216.142 17.8672C217.07 19.5355 218.465 20.896 220.157 21.7812C222.039 22.6924 224.104 23.1658 226.196 23.1658C228.288 23.1658 230.352 22.6924 232.235 21.7812C233.93 20.9004 235.327 19.5405 236.254 17.8709C237.229 16.0705 237.718 14.047 237.672 12C237.719 9.95161 237.231 7.92646 236.254 6.12525ZM231.876 15.5248C231.359 16.5159 230.567 17.3361 229.594 17.8859C228.553 18.4563 227.382 18.744 226.196 18.7204C225.02 18.7432 223.858 18.4554 222.828 17.8859C221.862 17.3321 221.075 16.5126 220.561 15.5248C220.003 14.4336 219.726 13.2212 219.752 11.9962C219.726 10.7701 220.003 9.55646 220.561 8.46391C221.075 7.47822 221.862 6.66124 222.828 6.11028C223.858 5.53954 225.019 5.25042 226.196 5.2721C227.382 5.24973 228.554 5.53873 229.594 6.11028C230.566 6.65726 231.359 7.4749 231.876 8.46391C232.427 9.55833 232.702 10.7711 232.677 11.9962C232.703 13.2202 232.428 14.4318 231.876 15.5248Z" fill="#262262"></path><path d="M255.135 1.34302V8.89035L255.194 14.5817L245.548 1.34302H241.058V22.6454H246.016V15.2178L245.956 9.47034L255.602 22.6454H260.092V1.34302H255.135Z" fill="#262262"></path><path d="M113.708 45.981V30.4604H116.156V43.8168H124.485V45.981H113.708ZM138.825 30.4604H141.142L147.175 45.981H144.596L142.956 41.762H136.966L135.349 45.981H132.747L138.825 30.4604ZM142.475 39.9476L139.983 33.1492L137.404 39.9476H142.475ZM169.162 41.9806C169.162 42.8113 168.943 43.5254 168.506 44.1229C168.083 44.7204 167.508 45.1794 166.779 45.5C166.05 45.8207 165.249 45.981 164.375 45.981H156.964V30.4604H164.965C165.693 30.4604 166.32 30.6571 166.845 31.0506C167.384 31.4295 167.792 31.925 168.069 32.5371C168.36 33.1346 168.506 33.7612 168.506 34.417C168.506 35.1749 168.309 35.8889 167.916 36.5593C167.537 37.2151 166.99 37.7033 166.276 38.0239C167.165 38.2863 167.865 38.7672 168.375 39.4667C168.9 40.1516 169.162 40.9896 169.162 41.9806ZM166.648 41.5215C166.648 41.0843 166.553 40.6908 166.364 40.3411C166.189 39.9768 165.941 39.6853 165.621 39.4667C165.315 39.2335 164.95 39.1169 164.528 39.1169H159.412V43.8605H164.375C164.812 43.8605 165.198 43.7585 165.533 43.5545C165.883 43.3359 166.152 43.0517 166.342 42.702C166.546 42.3376 166.648 41.9442 166.648 41.5215ZM159.412 32.5808V37.1495H163.915C164.324 37.1495 164.688 37.0548 165.008 36.8654C165.329 36.6613 165.584 36.3917 165.774 36.0565C165.963 35.7068 166.058 35.3133 166.058 34.8761C166.058 34.4243 165.97 34.0308 165.795 33.6957C165.621 33.3459 165.38 33.0763 165.074 32.8868C164.783 32.6828 164.44 32.5808 164.047 32.5808H159.412ZM188.766 34.111C188.62 33.9507 188.409 33.7831 188.132 33.6082C187.855 33.4188 187.527 33.2439 187.148 33.0836C186.769 32.9233 186.361 32.7921 185.924 32.6901C185.487 32.5881 185.035 32.5371 184.569 32.5371C183.549 32.5371 182.791 32.7265 182.295 33.1054C181.8 33.4843 181.552 34.009 181.552 34.6794C181.552 35.1749 181.691 35.5683 181.968 35.8598C182.244 36.1367 182.667 36.3699 183.235 36.5593C183.804 36.7488 184.518 36.9528 185.378 37.1714C186.427 37.4191 187.338 37.7179 188.11 38.0677C188.883 38.4028 189.473 38.8546 189.881 39.423C190.289 39.9913 190.493 40.7419 190.493 41.6745C190.493 42.4615 190.347 43.1392 190.056 43.7075C189.764 44.2759 189.356 44.7422 188.832 45.1066C188.307 45.4563 187.702 45.7186 187.017 45.8935C186.332 46.0538 185.596 46.134 184.809 46.134C184.037 46.134 183.265 46.0538 182.492 45.8935C181.734 45.7332 181.006 45.5 180.306 45.194C179.621 44.8734 178.987 44.4872 178.404 44.0354L179.519 41.9369C179.709 42.1263 179.978 42.3376 180.328 42.5708C180.692 42.7894 181.108 43.0007 181.574 43.2047C182.055 43.4088 182.572 43.5836 183.126 43.7294C183.694 43.8605 184.27 43.9261 184.853 43.9261C185.829 43.9261 186.573 43.7585 187.083 43.4233C187.607 43.0736 187.87 42.5781 187.87 41.9369C187.87 41.4122 187.702 40.9969 187.367 40.6908C187.032 40.3702 186.544 40.1006 185.902 39.882C185.261 39.6634 184.496 39.4448 183.607 39.2262C182.587 38.9493 181.734 38.6506 181.049 38.33C180.364 37.9948 179.847 37.5722 179.497 37.0621C179.162 36.5375 178.995 35.8744 178.995 35.0728C178.995 34.0527 179.242 33.1929 179.738 32.4934C180.233 31.7793 180.904 31.2473 181.749 30.8976C182.609 30.5333 183.571 30.3511 184.634 30.3511C185.334 30.3511 185.997 30.4312 186.624 30.5915C187.25 30.7373 187.833 30.9413 188.373 31.2036C188.926 31.4659 189.429 31.7647 189.881 32.0999L188.766 34.111Z" fill="#262262"></path><path d="M66.3127 7.17552C67.8751 7.17552 69.1416 5.909 69.1416 4.34667C69.1416 2.78434 67.8751 1.51782 66.3127 1.51782C64.7504 1.51782 63.4839 2.78434 63.4839 4.34667C63.4839 5.909 64.7504 7.17552 66.3127 7.17552Z" fill="#2FCCF7"></path><path d="M17.2238 12.3547H36.4907L32.1913 1.51831H17.2238L19.9517 6.93653H14.3276L17.2238 12.3547Z" fill="#2FCCF7"></path><path d="M5.3125 1.72785L8.16754 6.93653H14.0797L11.0188 1.51831L5.3125 1.72785Z" fill="#2FCCF7"></path><path d="M5.3125 9.04858L7.38175 12.6857H11.1012L9.20029 9.04858H5.3125Z" fill="#2FCCF7"></path><path d="M0 4.55054L1.52294 7.22971H4.25824L2.85878 4.55054H0Z" fill="#2FCCF7"></path><path d="M25.98 12.355L13.6543 25.0062L19.1548 34.6415L37.8305 15.9921L36.4909 12.355H25.98Z" fill="#3090E6"></path><path d="M38.6314 12.3547H56.8319L52.5325 1.51831H34.3545L38.6314 12.3547Z" fill="#2FCCF7"></path><path d="M46.3175 12.355L21.1909 37.3581L26.6915 46.9934L58.1717 15.9921L56.8321 12.355H46.3175Z" fill="#3090E6"></path></svg>